<svg xmlns="http://www.w3.org/2000/svg" width="16" height="15"><path fill="#4d4d4d" d="M5.266 11.593h-.533v-3.64h-.01c-.228.125-.697.411-.993.614v-.549a9.947 9.947 0 011.036-.636h.5zm1.477-1.03c.034.292.305.647.83.647.666 0 1.026-.67 1.03-1.708H8.58c-.12.327-.503.624-1.092.624-.672 0-1.323-.482-1.323-1.398 0-.897.688-1.428 1.419-1.428.925 0 1.542.58 1.542 2.106 0 1.425-.586 2.267-1.58 2.267-.875 0-1.306-.605-1.344-1.11zm.876-2.8c-.463 0-.922.305-.922.955 0 .645.429.947.903.947a.925.925 0 00.935-.931c0-.657-.416-.971-.916-.971z"/><path fill="#4d4d4d" d="M2.943 2.37a.395.395 0 01.395.395v.394h6.316v-.394a.395.395 0 01.79 0v.394h.789a1.579 1.579 0 011.579 1.58v8.684a1.579 1.579 0 01-1.58 1.579H1.76a1.579 1.579 0 01-1.579-1.58V4.739A1.579 1.579 0 011.759 3.16h.79v-.394a.395.395 0 01.394-.395zM.97 5.528v7.895a.79.79 0 00.79.79h9.474a.79.79 0 00.79-.79V5.528z"/></svg>