<svg xmlns="http://www.w3.org/2000/svg" width="54" height="8"><path fill="#6b8c9f" d="M26.33 4c0 2.202-1.92 4-4.27 4-2.35 0-4.27-1.798-4.27-4s1.92-4 4.27-4c2.35 0 4.27 1.798 4.27 4zm-4.27 3.05c1.79 0 3.256-1.373 3.256-3.05 0-1.677-1.466-3.05-3.256-3.05-1.79 0-3.256 1.373-3.256 3.05 0 1.677 1.466 3.05 3.256 3.05zm-17.79 0C2.48 7.05 1.014 5.678 1.014 4 1.014 2.323 2.48.95 4.27.95c.906 0 1.704.343 2.307.888l.712-.666A4.383 4.383 0 004.27 0C1.92 0 0 1.798 0 4s1.92 4 4.27 4a4.383 4.383 0 003.02-1.172l-.713-.666a3.414 3.414 0 01-2.307.889zm30.95 0c-1.79 0-3.256-1.373-3.256-3.05 0-1.677 1.466-3.05 3.256-3.05.906 0 1.704.343 2.307.888l.712-.666A4.383 4.383 0 0035.22 0c-2.35 0-4.27 1.798-4.27 4s1.92 4 4.27 4a4.383 4.383 0 003.02-1.172l-.713-.666a3.374 3.374 0 01-2.307.889zM10.154.22H9.14v7.576h1.014zm19 2.37H28.14v5.212h1.014zM16.134.22H15.12v7.576h1.014z"/><path fill="#6b8c9f" d="M15.634 3.52H9.66v.95h5.974zm29.828 3.31H40.61v.95h4.852zm0-6.61H40.61v.95h4.852zM28.635 1.816L26.91.22h3.45zM42.093 4.16c0 .424-.302.687-.711.687-.41 0-.712-.243-.712-.687v-.97h.28v.99c0 .283.194.424.432.424.237 0 .431-.141.431-.424v-.99h.28zm.867.666h.28V3.21h-.28zm.669-.869l.711-.747h-.345l-.733.747.798.87h.345zm2.561.869l-.496-.626h-.324v.626h-.28V3.21h.625c.345 0 .583.202.583.505a.49.49 0 01-.324.465l.518.666h-.302zm-.798-.869h.345c.194 0 .302-.1.302-.262s-.108-.263-.302-.263h-.345zm2.846.587h-.777l-.13.262h-.301l.755-1.636h.086l.755 1.636h-.302zm-.389-.89l-.28.668h.582zm1.811 1.172h-.28V3.21h.28zm2.293-1.616v1.637h-.086L50.81 3.715v1.091h-.28V3.17h.086l1.057 1.111v-1.09h.28zm2.03.222h-.863v.424h.647v.223h-.647v.505h.885v.242H52.84V3.21h1.143z"/></svg>