<svg xmlns="http://www.w3.org/2000/svg" width="70" height="11"><path fill="#bc9876" d="M34.13 5.5c0 3.028-2.488 5.5-5.535 5.5S23.06 8.528 23.06 5.5 25.548 0 28.595 0s5.535 2.472 5.535 5.5zm-1.314 0c0-2.306-1.9-4.194-4.22-4.194-2.321 0-4.222 1.888-4.222 4.194s1.9 4.194 4.221 4.194c2.32 0 4.221-1.888 4.221-4.194zM5.535 9.694c-2.32 0-4.221-1.888-4.221-4.194s1.9-4.194 4.221-4.194c1.174 0 2.209.472 2.991 1.222l.923-.917A5.508 5.508 0 005.535 0C2.488 0 0 2.472 0 5.5S2.488 11 5.535 11A5.508 5.508 0 009.45 9.389l-.923-.917c-.782.75-1.817 1.222-2.99 1.222zm40.12 0c-2.32 0-4.221-1.888-4.221-4.194s1.9-4.194 4.221-4.194c1.174 0 2.209.472 2.991 1.222l.923-.917A5.508 5.508 0 0045.655 0c-3.047 0-5.535 2.472-5.535 5.5s2.488 5.5 5.535 5.5a5.508 5.508 0 003.914-1.611l-.923-.917a4.238 4.238 0 01-2.99 1.222zM13.164.31H11.85v10.417h1.314zm24.63 3.25H36.48v7.167h1.314zM20.914.31H19.6v10.417h1.314z"/><path fill="#bc9876" d="M20.264 4.83H12.52v1.306h7.744zM58.93 9.39h-6.29v1.306h6.29zm0-9.08h-6.29v1.306h6.29zM37.126 2.504L34.89.31h4.473zm17.439 3.219c0 .584-.391.945-.922.945-.532 0-.923-.334-.923-.945V4.39h.363v1.361c0 .389.252.583.56.583.307 0 .559-.194.559-.583V4.39h.363zm1.125.919h.363V4.42h-.363zm.867-1.194l.922-1.028h-.447l-.95 1.028 1.034 1.194h.447zm3.319 1.194l-.643-.86h-.42v.86h-.363V4.42h.81c.448 0 .755.278.755.694a.673.673 0 01-.419.64l.671.916h-.391zM58.84 5.448h.448c.251 0 .391-.14.391-.361 0-.223-.14-.361-.391-.361h-.448zm3.695.801H61.53l-.168.361h-.391l.978-2.25h.112l.979 2.25h-.392zm-.503-1.222l-.363.916h.755zm2.351 1.615h-.363V4.42h.363zm2.962-2.226v2.25h-.112l-1.37-1.556v1.5H65.5V4.36h.112l1.37 1.528v-1.5h.363zm2.627.31h-1.119v.583h.84v.305h-.84v.695H70v.333h-1.51V4.42h1.482z"/></svg>