<svg xmlns="http://www.w3.org/2000/svg" width="19" height="19"><path fill="gray" d="M14.352 17.947c-.234 0-.461-.07-.655-.201L9.76 15.107a.116.116 0 00-.132 0l-3.937 2.639a1.172 1.172 0 01-1.784-1.272l1.293-4.56a.121.121 0 00-.042-.127L1.432 8.858a1.172 1.172 0 01.68-2.11l4.75-.18a.121.121 0 00.106-.08L8.604 2.04a1.172 1.172 0 012.201 0l1.636 4.45a.122.122 0 00.106.079l4.75.18a1.172 1.172 0 01.68 2.11l-3.726 2.93a.116.116 0 00-.042.126l1.293 4.56a1.179 1.179 0 01-1.15 1.472zM9.697 14.03c.233.008.46.085.649.222l3.937 2.639a.116.116 0 00.181-.059.116.116 0 00-.002-.073l-1.293-4.56a1.165 1.165 0 01.407-1.24l3.726-2.93a.116.116 0 00-.069-.21l-4.75-.18a1.172 1.172 0 01-1.055-.77l-1.636-4.45a.116.116 0 00-.222 0L7.95 6.863a1.172 1.172 0 01-1.056.77l-4.75.18a.116.116 0 00-.068.211l3.731 2.935a1.172 1.172 0 01.406 1.24l-1.287 4.56a.11.11 0 00.042.127.105.105 0 00.137 0l3.937-2.64c.193-.127.419-.195.65-.194z"/></svg>