<svg xmlns="http://www.w3.org/2000/svg" width="18" height="18"><path fill="gray" d="M16.484 2.868c.108.202.165.427.166.656v9.574a1.406 1.406 0 01-.619 1.125 1.45 1.45 0 01-.787.247c-.181 0-.36-.034-.529-.1l-6.84-2.734v2.846a1.406 1.406 0 01-1.395 1.406h-.709a1.417 1.417 0 01-1.271-.81l-1.687-3.577a1.406 1.406 0 01-1.407-1.373v-.146H0V6.607h1.406v-.113a1.406 1.406 0 011.407-1.406h4.443c.178 0 .353-.034.518-.101l6.941-2.734a1.406 1.406 0 011.316.113c.19.128.345.3.453.502zM2.812 6.494v3.634H6.47V6.494zm3.657 5.007H4.376l1.384 2.98h.709zm8.775 1.563v-9.54L8.29 6.292a2.542 2.542 0 01-.416.124v3.712c.143.044.283.1.416.169zm1.44-6.176a1.406 1.406 0 010 2.813z"/></svg>