<svg width="19" height="19" fill="none" xmlns="http://www.w3.org/2000/svg"><path d="M8.61 9.5a.89.89 0 101.781 0 .89.89 0 00-1.782 0zm3.71 0a.89.89 0 101.782 0 .89.89 0 00-1.782 0zm-7.42 0a.89.89 0 101.781 0 .89.89 0 00-1.781 0zm12.268-3.221A8.315 8.315 0 009.5 1.188h-.037a8.293 8.293 0 00-8.275 8.351 8.338 8.338 0 00.89 3.709v2.82a.854.854 0 00.854.854h2.822c1.15.58 2.42.884 3.709.89h.039c1.111 0 2.19-.215 3.204-.636a8.25 8.25 0 002.65-1.766 8.294 8.294 0 002.457-5.873 8.28 8.28 0 00-.646-3.258zm-2.804 8.127A6.866 6.866 0 019.5 16.402h-.03a6.925 6.925 0 01-3.212-.807l-.156-.083H3.488v-2.613l-.083-.156a6.927 6.927 0 01-.807-3.211 6.86 6.86 0 011.996-4.895 6.85 6.85 0 014.876-2.04h.032a6.869 6.869 0 014.884 2.021 6.874 6.874 0 012.02 4.913 6.877 6.877 0 01-2.043 4.875z" fill="gray"/></svg>