<svg width="21" height="21" fill="none" xmlns="http://www.w3.org/2000/svg"><path d="M4.594 7a2.406 2.406 0 114.812 0 2.406 2.406 0 01-4.812 0zM7 3.5a3.5 3.5 0 100 7 3.5 3.5 0 000-7zm6.344 4.375a1.531 1.531 0 113.063 0 1.531 1.531 0 01-3.063 0zm1.531-2.625a2.625 2.625 0 100 5.25 2.625 2.625 0 000-5.25zm0 11.813c-.952 0-1.716-.154-2.326-.404l.082-.105c.216-.285.382-.57.508-.84.447.155 1.014.255 1.736.255 1.87 0 2.7-.67 3.09-1.239a2.427 2.427 0 00.41-1.17v-.107a.547.547 0 00-.547-.547h-4.325a2.507 2.507 0 00-.55-1.094h4.875a1.641 1.641 0 011.64 1.641v.168l-.01.122a3.523 3.523 0 01-.59 1.605c-.624.908-1.817 1.714-3.994 1.714h.001zm-11.922-5.25a1.64 1.64 0 00-1.64 1.64v.57l.001.043a3.42 3.42 0 00.095.598 3.8 3.8 0 00.657 1.362c.769 1.013 2.233 1.912 4.934 1.912 2.702 0 4.166-.9 4.934-1.912a3.8 3.8 0 00.656-1.362 3.407 3.407 0 00.098-.64v-.57a1.64 1.64 0 00-1.641-1.642H2.953zm-.546 2.197v-.557c0-.302.244-.547.546-.547h8.094c.302 0 .547.245.547.547v.557a2.27 2.27 0 01-.064.386c-.09.35-.248.68-.468.969-.517.682-1.623 1.479-4.062 1.479-2.44 0-3.545-.797-4.062-1.479a2.706 2.706 0 01-.468-.97 2.274 2.274 0 01-.063-.384z" fill="gray"/></svg>