<svg xmlns="http://www.w3.org/2000/svg" width="51" height="51"><path fill="#6b8c9f" d="M0 20C0 10.572 0 5.858 2.929 2.929 5.858 0 10.572 0 20 0h11c9.428 0 14.142 0 17.071 2.929C51 5.858 51 10.572 51 20v11c0 9.428 0 14.142-2.929 17.071C45.142 51 40.428 51 31 51H20c-9.428 0-14.142 0-17.071-2.929C0 45.142 0 40.428 0 31z"/><path fill="#fff" d="M33.991 29.366a8.667 8.667 0 00-12.29-10.887l-1.075-1.882a10.829 10.829 0 0110.792.026c4.864 2.808 6.728 8.82 4.46 13.834l1.454.839-4.512 2.398-.179-5.106zM17.55 27.93a8.668 8.668 0 0012.754 5.602l1.074 1.882a10.83 10.83 0 01-10.792-.026c-4.864-2.808-6.728-8.82-4.46-13.835l-1.455-.837 4.512-2.399.179 5.107-1.35-.778a8.668 8.668 0 00-.462 5.284zm4.661.243h5.958a.542.542 0 000-1.084h-4.333a2.708 2.708 0 110-5.416h1.083v-1.084h2.167v1.084h2.708v2.166h-5.958a.542.542 0 000 1.084h4.333a2.708 2.708 0 110 5.416h-1.083v1.084h-2.167v-1.084H22.21z"/></svg>