<svg xmlns="http://www.w3.org/2000/svg" width="14" height="14"><path fill="#b5c775" d="M2.337 6.567c-.645 0-1.167-.39-1.167-.875 0-.483.522-.875 1.167-.875h1.031C4.448 2.524 7.335.88 10.795.88h.875c.645 0 1.167.392 1.167.875s-.522.875-1.167.875h-.875c-2.11 0-3.945.886-4.882 2.188h4.59c.646 0 1.167.39 1.167.875 0 .483-.521.875-1.167.875H5.261a4.27 4.27 0 00-.008.218v.438c0 .074.004.147.008.218h5.242c.646 0 1.167.392 1.167.875 0 .484-.521.875-1.167.875h-4.59c.937 1.302 2.771 2.188 4.882 2.188h.875c.645 0 1.167.391 1.167.875s-.522.875-1.167.875h-.875c-3.46 0-6.347-1.643-7.427-3.938H2.337c-.645 0-1.167-.39-1.167-.875 0-.483.522-.875 1.167-.875h.588a4.375 4.375 0 01-.005-.218v-.438c0-.074.002-.145.005-.219z"/></svg>