<svg xmlns="http://www.w3.org/2000/svg" width="31" height="31"><defs><clipPath id="a"><path d="M0 10c0-4.714 0-7.071 1.464-8.536C2.93 0 5.286 0 10 0h11c4.714 0 7.071 0 8.536 1.464C31 2.93 31 5.286 31 10v11c0 4.714 0 7.071-1.464 8.536C28.07 31 25.713 31 21 31H10c-4.714 0-7.071 0-8.536-1.464C0 28.07 0 25.713 0 21z"/></clipPath></defs><path fill="#f3e8d4" d="M0 10c0-4.714 0-7.071 1.464-8.536C2.93 0 5.286 0 10 0h11c4.714 0 7.071 0 8.536 1.464C31 2.93 31 5.286 31 10v11c0 4.714 0 7.071-1.464 8.536C28.07 31 25.713 31 21 31H10c-4.714 0-7.071 0-8.536-1.464C0 28.07 0 25.713 0 21z"/><g clip-path="url(#a)"><path fill="#fad755" d="M42 14.8h-53v15.969h53z"/><path fill="#2858b3" d="M42-1.17h-53v15.969h53z"/></g></svg>