<svg xmlns="http://www.w3.org/2000/svg" width="31" height="31"><defs><clipPath id="a"><path d="M0 10c0-4.714 0-7.071 1.464-8.536C2.93 0 5.286 0 10 0h11c4.714 0 7.071 0 8.536 1.464C31 2.93 31 5.286 31 10v11c0 4.714 0 7.071-1.464 8.536C28.07 31 25.713 31 21 31H10c-4.714 0-7.071 0-8.536-1.464C0 28.07 0 25.713 0 21z"/></clipPath></defs><path fill="#f3e8d4" d="M0 10c0-4.714 0-7.071 1.464-8.536C2.93 0 5.286 0 10 0h11c4.714 0 7.071 0 8.536 1.464C31 2.93 31 5.286 31 10v11c0 4.714 0 7.071-1.464 8.536C28.07 31 25.713 31 21 31H10c-4.714 0-7.071 0-8.536-1.464C0 28.07 0 25.713 0 21z"/><g clip-path="url(#a)"><path fill="#2a5f9e" d="M13 40c14.36 0 26-11.64 26-26S27.36-12 13-12-13-.36-13 14s11.64 26 26 26z"/><path fill="#ffce31" d="M15 3.88l.42 1.32h1.38l-1.08.84.42 1.32L15 6.52l-1.14.84.42-1.32-1.08-.84h1.38zm0 20.4l.42 1.32h1.38l-1.08.78.42 1.38-1.14-.84-1.14.84.42-1.38-1.08-.78h1.38zm5.04-1.68l.42 1.32h1.44l-1.14.84.42 1.32-1.14-.84-1.14.84.48-1.32-1.14-.84h1.38zm3.48-3.48l.42 1.32h1.44l-1.14.84.42 1.32-1.14-.84-1.14.84.48-1.32-1.14-.84h1.38zm1.68-5.04l.42 1.32H27l-1.14.84.42 1.32-1.08-.84-1.14.84.42-1.32-1.14-.84h1.38zm-1.68-5.1l.42 1.38h1.44l-1.14.78.42 1.32-1.14-.78-1.14.78.48-1.32-1.14-.78h1.38zM20.04 5.5l.42 1.38h1.44l-1.14.78.42 1.32-1.14-.78-1.14.78.48-1.32-1.14-.78h1.38zm-9.66 18.42h1.38l-1.14.84.48 1.32-1.14-.84-1.14.84.42-1.32-1.14-.84h1.44l.42-1.32zM6.9 20.44h1.38l-1.14.84.48 1.32-1.14-.84-1.14.84.42-1.32-1.14-.84h1.44l.42-1.32zM5.28 15.4h1.38l-1.14.84.42 1.32-1.14-.84-1.08.84.42-1.32L3 15.4h1.38l.42-1.32zm1.62-5.04h1.38l-1.14.78.48 1.32-1.14-.78-1.14.78.42-1.32-1.14-.78h1.44l.42-1.38zm3.48-3.48h1.38l-1.14.78.48 1.32-1.14-.78-1.14.78.42-1.32-1.14-.78h1.44l.42-1.38z"/></g></svg>