<svg xmlns="http://www.w3.org/2000/svg" width="51" height="51"><path fill="#bc9876" d="M0 20C0 10.572 0 5.858 2.929 2.929 5.858 0 10.572 0 20 0h11c9.428 0 14.142 0 17.071 2.929C51 5.858 51 10.572 51 20v11c0 9.428 0 14.142-2.929 17.071C45.142 51 40.428 51 31 51H20c-9.428 0-14.142 0-17.071-2.929C0 45.142 0 40.428 0 31z"/><path fill="#fff" d="M24.5 14.25a11.25 11.25 0 110 22.5 11.25 11.25 0 010-22.5zm6.364 17.614a9 9 0 10-12.729-12.728 9 9 0 0012.729 12.728z"/><path fill="#fff" d="M24.5 24.375c-2.25 0-2.25-.709-2.25-1.125 0-.416.787-1.125 2.25-1.125 1.462 0 1.564.72 1.575 1.125h2.25a3.375 3.375 0 00-2.7-3.24v-1.26h-2.25v1.226C21.125 20.348 20 21.8 20 23.25c0 1.26.585 3.375 4.5 3.375 2.25 0 2.25.765 2.25 1.125s-.698 1.125-2.25 1.125c-2.07 0-2.25-.968-2.25-1.125H20c0 1.035.742 2.869 3.375 3.285v1.215h2.25v-1.215C27.875 30.652 29 29.201 29 27.75c0-1.26-.585-3.375-4.5-3.375z"/></svg>