<svg xmlns="http://www.w3.org/2000/svg" width="26" height="21"><path fill="#fff" d="M6.315 8.013a3.323 3.323 0 104.699-4.7 3.323 3.323 0 00-4.7 4.7zm5.767-5.767A4.833 4.833 0 115.247 9.08a4.833 4.833 0 016.835-6.835zm5.962 6.12a2.115 2.115 0 102.99-2.99 2.115 2.115 0 00-2.99 2.99zm4.058-4.058a3.625 3.625 0 11-5.126 5.127 3.625 3.625 0 015.126-5.127zM19.538 19.56c-1.314 0-2.369-.213-3.21-.557l.112-.145c.298-.393.527-.787.702-1.16.617.214 1.4.352 2.397.352 2.583 0 3.73-.926 4.267-1.71.306-.451.498-.97.559-1.511.003-.035.006-.07.007-.106v-.147a.755.755 0 00-.755-.755h-5.973a3.462 3.462 0 00-.758-1.51h6.731a2.265 2.265 0 012.266 2.265v.18l-.002.051c-.002.043-.006.1-.012.169a4.863 4.863 0 01-.816 2.217c-.861 1.254-2.509 2.367-5.514 2.367zm-5.285-7.25a2.267 2.267 0 012.265 2.266v.787a3.37 3.37 0 01-.018.25c-.017.159-.05.376-.116.634a5.249 5.249 0 01-.907 1.881c-1.06 1.4-3.082 2.64-6.813 2.64-3.73 0-5.752-1.24-6.814-2.64a5.248 5.248 0 01-.906-1.88 4.726 4.726 0 01-.132-.826l-.002-.059v-.787a2.265 2.265 0 012.266-2.266zM2.32 15.345c.014.18.043.357.087.532.124.485.344.94.646 1.338.715.943 2.242 2.042 5.61 2.042 3.368 0 4.896-1.1 5.61-2.042a3.74 3.74 0 00.646-1.339c.045-.174.074-.352.087-.531v-.77a.755.755 0 00-.754-.755H3.076a.755.755 0 00-.756.755v.75z"/></svg>