<svg xmlns="http://www.w3.org/2000/svg" width="31" height="31"><path fill="#b5c775" d="M0 10c0-4.714 0-7.071 1.464-8.536C2.93 0 5.286 0 10 0h11c4.714 0 7.071 0 8.536 1.464C31 2.93 31 5.286 31 10v11c0 4.714 0 7.071-1.464 8.536C28.07 31 25.713 31 21 31H10c-4.714 0-7.071 0-8.536-1.464C0 28.07 0 25.713 0 21z"/><path fill="#fff" d="M10 13a.75.75 0 100-1.5.75.75 0 000 1.5zm0 3.75a.75.75 0 100-1.5.75.75 0 000 1.5zm0 3.75a.75.75 0 100-1.5.75.75 0 000 1.5zm12.045-5.25h-9.09a.705.705 0 00-.705.705v.09c0 .39.316.705.705.705h9.09c.39 0 .705-.316.705-.705v-.09a.705.705 0 00-.705-.705zm0 3.75h-9.09a.705.705 0 00-.705.705v.09c0 .39.316.705.705.705h9.09c.39 0 .705-.316.705-.705v-.09a.705.705 0 00-.705-.705zm0-7.5h-9.09a.705.705 0 00-.705.705v.09c0 .39.316.705.705.705h9.09c.39 0 .705-.316.705-.705v-.09a.705.705 0 00-.705-.705z"/></svg>