<svg xmlns="http://www.w3.org/2000/svg" width="20" height="20"><path fill="#133215" d="M4.615 10.475a.833.833 0 11.61 1.55A2.982 2.982 0 003.338 14.8v1.45a.833.833 0 00.833.833h6.667a.834.834 0 00.833-.833v-1.373a3.048 3.048 0 00-1.963-2.849.833.833 0 11.593-1.556 4.715 4.715 0 013.037 4.405v1.373a2.5 2.5 0 01-2.5 2.5H4.17a2.5 2.5 0 01-2.5-2.5V14.8a4.649 4.649 0 012.945-4.325zm2.888-8.392a3.333 3.333 0 013.334 3.334v1.666a3.333 3.333 0 01-6.667 0V5.417a3.333 3.333 0 013.333-3.334zm0 1.667a1.667 1.667 0 00-1.666 1.667v1.666a1.667 1.667 0 103.333 0V5.417A1.667 1.667 0 007.503 3.75zm7.5 14.167a.833.833 0 010-1.667h.834a.833.833 0 00.833-.833v-1.532a2.823 2.823 0 00-1.93-2.678.833.833 0 11.527-1.581 4.49 4.49 0 013.07 4.259v1.532a2.5 2.5 0 01-2.5 2.5zm-2.5-15a.833.833 0 010-1.667 3.334 3.334 0 013.334 3.333V6.25a3.333 3.333 0 01-3.334 3.333.833.833 0 010-1.666A1.666 1.666 0 0014.17 6.25V4.583a1.667 1.667 0 00-1.667-1.666z"/></svg>