<svg width="18" height="18" fill="none" xmlns="http://www.w3.org/2000/svg"><path d="M15.986 10.988a6.5 6.5 0 00-8.974-8.974 8.476 8.476 0 00-1.977.349 7.534 7.534 0 011.663-1.33A7.465 7.465 0 0110.475 0h.025a7.5 7.5 0 017.497 7.702v.024a7.462 7.462 0 01-1.03 3.576 7.532 7.532 0 01-1.33 1.662c.19-.631.31-1.293.349-1.976z" fill="#7A934F"/><path fill-rule="evenodd" clip-rule="evenodd" d="M9.886 8.334A2 2 0 008 7v-.5H7V7a2 2 0 100 4v2c-.435 0-.806-.277-.944-.666a.5.5 0 10-.942.332A2 2 0 007 14v.5h1V14a2 2 0 100-4V8c.435 0 .806.277.944.666a.5.5 0 10.942-.332zM7 8a1 1 0 000 2V8zm1 5a1 1 0 000-2v2z" fill="#7A934F"/><path fill-rule="evenodd" clip-rule="evenodd" d="M15 10.5a7.5 7.5 0 11-15 0 7.5 7.5 0 0115 0zm-1 0a6.5 6.5 0 11-13 0 6.5 6.5 0 0113 0z" fill="#7A934F"/></svg>