<svg width="18" height="18" fill="none" xmlns="http://www.w3.org/2000/svg"><g clip-path="url(#clip0_1_134)"><path d="M12.165 1.477L6.312 7.33a22.721 22.721 0 00-5.42 8.72.874.874 0 00.21.904l.003.003a.874.874 0 00.904.211 22.72 22.72 0 008.72-5.421l5.852-5.852a3.123 3.123 0 00-4.416-4.417zM9.934 10.95a21.6 21.6 0 01-7.81 4.984 21.601 21.601 0 014.984-7.81l3.486-3.485 2.826 2.825-3.486 3.486zm5.852-5.852l-1.57 1.57-2.826-2.825 1.57-1.57a1.997 1.997 0 112.826 2.825z" fill="#7A934F"/></g><defs><clipPath id="clip0_1_134"><path fill="#fff" d="M0 0h18v18H0z"/></clipPath></defs></svg>