<svg xmlns="http://www.w3.org/2000/svg" width="51" height="51"><path fill="#bc9876" d="M0 20C0 10.572 0 5.858 2.929 2.929 5.858 0 10.572 0 20 0h11c9.428 0 14.142 0 17.071 2.929C51 5.858 51 10.572 51 20v11c0 9.428 0 14.142-2.929 17.071C45.142 51 40.428 51 31 51H20c-9.428 0-14.142 0-17.071-2.929C0 45.142 0 40.428 0 31z"/><path fill="#fff" d="M34.896 21.334l-3.569 10.54a.744.744 0 01-.7.493H20.501a.744.744 0 01-.717-.544L15.64 16.59c-.211-.73-.521-.73-.623-.73h-3.212a.745.745 0 110-1.49h3.213c.46 0 1.583.177 2.056 1.813l1.204 4.155h1.925l4.726-4.098a1.5 1.5 0 012.12 0l4.808 4.098h2.338a.746.746 0 01.7.996zm-12.471-.996h7.128l-3.564-3.037zm10.711 1.49h-14.44l2.371 9.05h9.035zM30.5 35.75a1.875 1.875 0 11-3.75 0 1.875 1.875 0 013.75 0zm-6.75 0a1.875 1.875 0 11-3.75 0 1.875 1.875 0 013.75 0z"/></svg>