<svg xmlns="http://www.w3.org/2000/svg" width="31" height="31"><path fill="#bc9876" d="M0 10c0-4.714 0-7.071 1.464-8.536C2.93 0 5.286 0 10 0h11c4.714 0 7.071 0 8.536 1.464C31 2.93 31 5.286 31 10v11c0 4.714 0 7.071-1.464 8.536C28.07 31 25.713 31 21 31H10c-4.714 0-7.071 0-8.536-1.464C0 28.07 0 25.713 0 21z"/><path fill="#fff" d="M22.75 21H22V9.75a.75.75 0 10-1.5 0V21H19v-8.25a.75.75 0 10-1.5 0V21H16v-5.25a.75.75 0 00-1.5 0V21H13v-2.25a.75.75 0 10-1.5 0V21H10V8.25a.75.75 0 00-1.5 0v13.5a.75.75 0 00.75.75h13.5a.75.75 0 100-1.5z"/></svg>